{"title":"The.Strain.S02E03.HDTV.480.x264.AAC-VYTO [P2PDL]","uid":12164192,"size":147840779,"categoryP":"video","categoryS":"hd___tv_shows","magnet":"?xt=urn:btih:ff5863e06b09256da93177f398e93c1fda7bb3da&amp;dn=The.Strain.S02E03.HDTV.480.x264.AAC-VYTO+%5BP2PDL%5D&amp;tr=udp%3A%2F%2Ftracker.openbittorrent.com%3A80&amp;tr=udp%3A%2F%2Fopen.demonii.com%3A1337&amp;tr=udp%3A%2F%2Ftracker.coppersurfer.tk%3A6969&amp;tr=udp%3A%2F%2Fexodus.desync.com%3A6969","seeders":4,"leechers":1,"uploader":"ValidusVyto","files":5,"time":1437993052,"description":"____    ____ ____    ____ .___________.  ______   \n     /   /      /   / |           | /  __    \n    /   /      /   /  `---|  |----`|  |  |  | \n        /     _    _/       |  |     |  |  |  | \n       /        |  |         |  |     |  `--'  | \n    __/         |__|         |__|      ______/  \n                                                  \nPresenting Small Encodes with quality for years!\n                                                                                                   \n                                                                                                   \n\nThe.Strain.S02E03.HDTV.480.x264.AAC-VYTO\n\n\nGeneral\nFormat                         : MPEG-4\nFile size                      : 141 MiB\nDuration                       : 43mn 47s\nOverall bit rate               : 450 Kbps\n\nVideo\nFormat                         : AVC\nBit rate                       : 415 Kbps\nWidth                          : 720 pixels\nHeight                         : 400 pixels\nDisplay aspect ratio           : 16:9\nFrame rate mode                : Constant\nFrame rate                     : 23.976 fps\nBit depth                      : 8 bits\nStream size                    : 130 MiB (92%)\nWriting library                : x264 core 146 r2538 121396c\n\nAudio\nFormat                         : AAC\nBit rate mode                  : Variable\nBit rate                       : 32.0 Kbps\nChannel(s)                     : 2 channels\nChannel positions              : Front: L R \nSampling rate                  : 48.0 KHz \nStream size                    : 10.0 MiB (7%)\n\n\nScreenshots:\n &lt;a href=&quot;\nhttp://ititli.com/q1&quot; rel=&quot;nofollow&quot; target=&quot;_NEW&quot;&gt;\nhttp://ititli.com/q1&lt;/a&gt; &lt;a href=&quot;\nhttp://ititli.com/qT&quot; rel=&quot;nofollow&quot; target=&quot;_NEW&quot;&gt;\nhttp://ititli.com/qT&lt;/a&gt; &lt;a href=&quot;\nhttp://ititli.com/qW&quot; rel=&quot;nofollow&quot; target=&quot;_NEW&quot;&gt;\nhttp://ititli.com/qW&lt;/a&gt; &lt;a href=&quot;\nhttp://ititli.com/qg&quot; rel=&quot;nofollow&quot; target=&quot;_NEW&quot;&gt;\nhttp://ititli.com/qg&lt;/a&gt; &lt;a href=&quot;\nhttp://ititli.com/qn&quot; rel=&quot;nofollow&quot; target=&quot;_NEW&quot;&gt;\nhttp://ititli.com/qn&lt;/a&gt; &lt;a href=&quot;\nhttp://ititli.com/qw&quot; rel=&quot;nofollow&quot; target=&quot;_NEW&quot;&gt;\nhttp://ititli.com/qw&lt;/a&gt; &lt;a href=&quot;\nhttp://ititli.com/q2&quot; rel=&quot;nofollow&quot; target=&quot;_NEW&quot;&gt;\nhttp://ititli.com/q2&lt;/a&gt; &lt;a href=&quot;\nhttp://ititli.com/q6&quot; rel=&quot;nofollow&quot; target=&quot;_NEW&quot;&gt;\nhttp://ititli.com/q6&lt;/a&gt; &lt;a href=&quot;\nhttp://ititli.com/q8&quot; rel=&quot;nofollow&quot; target=&quot;_NEW&quot;&gt;\nhttp://ititli.com/q8&lt;/a&gt; &lt;a href=&quot;\nhttp://ititli.com/qe&quot; rel=&quot;nofollow&quot; target=&quot;_NEW&quot;&gt;\nhttp://ititli.com/qe&lt;/a&gt; &lt;a href=&quot;\nhttp://ititli.com/qj&quot; rel=&quot;nofollow&quot; target=&quot;_NEW&quot;&gt;\nhttp://ititli.com/qj&lt;/a&gt; &lt;a href=&quot;\nhttp://ititli.com/qk&quot; rel=&quot;nofollow&quot; target=&quot;_NEW&quot;&gt;\nhttp://ititli.com/qk&lt;/a&gt;\n\n----------------------------------------------------------------------------------------------------\n\n\nEncoder Notes: Looking For Early Access To Anything You Can Provide DVDScr, R5, DVDR, BluRay, Direct\nAudio, Music Releases and Seedboxes. If You Got anything to offer please contact us.\n\nSupport us by donating BC - 1FgwdzPsd1y25Gea8wP1qni35uGCtmkRCD","torrent":{"xt":"urn:btih:ff5863e06b09256da93177f398e93c1fda7bb3da","amp;dn":"The.Strain.S02E03.HDTV.480.x264.AAC-VYTO+%5BP2PDL%5D","amp;tr":["udp%3A%2F%2Ftracker.openbittorrent.com%3A80","udp%3A%2F%2Fopen.demonii.com%3A1337","udp%3A%2F%2Ftracker.coppersurfer.tk%3A6969","udp%3A%2F%2Fexodus.desync.com%3A6969"],"infoHash":"ff5863e06b09256da93177f398e93c1fda7bb3da","infoHashBuffer":{"type":"Buffer","data":[255,88,99,224,107,9,37,109,169,49,119,243,152,233,60,31,218,123,179,218]},"announce":[],"urlList":[]}}